# xmcd
#
# Track frame offsets:
# 150
# 17175
# 34321
# 55939
# 74329
# 85187
# 97772
# 117020
# 139743
# 144940
# 158812
# 181846
# 197205
#
# Disc length: 2721 seconds
#
#
# Revision: 0
# Processed by: cddbd v1.5.2PL0 Copyright (c) Steve Scherf et al.
# Submitted via: FreeRIP 2.53 
#
DISCID=aa0a9f0d
DTITLE=The Rhythm Junks - Pop off
DYEAR=2007
DGENRE=Blues
TTITLE0=Join The Bus
TTITLE1=Panamajumbo
TTITLE2=Kerosene
TTITLE3=The Machine
TTITLE4=Meiske
TTITLE5=Number From Heaven
TTITLE6=Monk It Up
TTITLE7=Best Kept Secret
TTITLE8=Pop Off
TTITLE9=Wham Bam
TTITLE10=Why Can't I Get Out Of My Bed
TTITLE11=Moskow Diskow
TTITLE12=Flow Back To The Bow
EXTD=
EXTT0=
EXTT1=
EXTT2=
EXTT3=
EXTT4=
EXTT5=
EXTT6=
EXTT7=
EXTT8=
EXTT9=
EXTT10=
EXTT11=
EXTT12=
PLAYORDER=
